<?xml version="1.0" standalone="no"?>
<!DOCTYPE svg PUBLIC "-//W3C//DTD SVG 20010904//EN"
 "http://www.w3.org/TR/2001/REC-SVG-20010904/DTD/svg10.dtd">
<svg version="1.0" xmlns="http://www.w3.org/2000/svg"
 width="512.000000pt" height="512.000000pt" viewBox="0 0 512.000000 512.000000"
 preserveAspectRatio="xMidYMid meet">
<metadata>
Created by potrace 1.14, written by Peter Selinger 2001-2017
</metadata>
<g transform="translate(0.000000,512.000000) scale(0.100000,-0.100000)"
fill="#000000" stroke="none">
<path d="M2325 4853 c-98 -9 -300 -48 -405 -78 -530 -153 -982 -484 -1291
-946 -192 -286 -330 -667 -368 -1011 -16 -141 -13 -418 4 -554 67 -511 292
-969 655 -1334 613 -617 1536 -835 2360 -560 103 35 333 142 445 207 187 110
363 254 528 434 104 113 126 142 219 280 150 223 289 555 332 794 3 17 8 41
11 55 3 14 8 44 11 66 2 23 7 52 9 64 21 109 21 445 1 570 -3 14 -10 59 -16
100 -56 365 -228 750 -472 1057 -121 153 -322 339 -488 454 -61 43 -273 169
-284 169 -2 0 -52 22 -110 50 -187 87 -436 154 -668 179 -90 10 -381 12 -473
4z"/>
</g>
</svg>
